<svg
      xmlns="http://www.w3.org/2000/svg"
      xmlns:xlink="http://www.w3.org/1999/xlink"
      width="547.5px"
      height="431.5px"
    >
      <path
        fill-rule="evenodd"
        stroke="rgb(255, 255, 255)"
        stroke-width="1px"
        stroke-linecap="butt"
        stroke-linejoin="miter"
        fill="none"
        d="M3.500,85.500 C3.500,85.500 8.076,75.268 29.500,68.500 C50.924,61.732 133.401,34.812 275.500,37.500 C374.133,37.144 530.395,57.969 542.500,85.500 C542.500,85.500 558.631,77.431 521.500,56.500 C476.495,33.995 359.009,15.694 273.500,16.500 C187.991,17.306 85.686,28.734 25.500,57.500 C8.954,65.418 -2.965,75.157 3.500,85.500 Z"
      />
      <path
        fill-rule="evenodd"
        stroke="rgb(255, 255, 255)"
        stroke-width="1px"
        stroke-linecap="butt"
        stroke-linejoin="miter"
        fill="none"
        d="M151.500,24.500 C151.500,24.500 186.414,4.236 270.500,1.500 C334.457,-0.942 396.500,24.500 396.500,24.500 "
      />
      <path
        fill-rule="evenodd"
        stroke="rgb(255, 255, 255)"
        stroke-width="1px"
        stroke-linecap="butt"
        stroke-linejoin="miter"
        fill="none"
        d="M327.500,172.500 L420.500,422.500 "
      />
      <path
        fill-rule="evenodd"
        stroke="rgb(255, 255, 255)"
        stroke-width="1px"
        stroke-linecap="butt"
        stroke-linejoin="miter"
        fill="none"
        d="M306.500,172.500 L363.500,428.500 "
      />
      <path
        fill-rule="evenodd"
        stroke="rgb(255, 255, 255)"
        stroke-width="1px"
        stroke-linecap="butt"
        stroke-linejoin="miter"
        fill="none"
        d="M240.500,172.500 L182.500,429.500 "
      />
      <path
        fill-rule="evenodd"
        stroke="rgb(255, 255, 255)"
        stroke-width="1px"
        stroke-linecap="butt"
        stroke-linejoin="miter"
        fill="none"
        d="M219.500,172.500 L126.500,422.500 "
      />
      <path
        fill-rule="evenodd"
        stroke="rgb(255, 255, 255)"
        stroke-width="1px"
        stroke-linecap="butt"
        stroke-linejoin="miter"
        fill="none"
        d="M247.398,51.263 L302.860,51.263 C304.531,51.263 305.593,52.769 305.240,54.582 L301.773,72.407 C301.514,73.742 300.183,74.802 298.795,74.802 L252.730,74.802 C251.342,74.802 249.954,73.742 249.623,72.407 L245.197,54.582 C244.747,52.769 245.727,51.263 247.398,51.263 Z"
      />
      <path
        fill-rule="evenodd"
        stroke="rgb(255, 255, 255)"
        stroke-width="1px"
        stroke-linecap="butt"
        stroke-linejoin="miter"
        fill="none"
        d="M199.302,53.995 L234.516,52.473 C235.577,52.427 236.714,53.823 237.047,55.548 L240.326,72.507 C240.571,73.777 240.052,74.816 239.171,74.854 L209.924,76.118 C209.043,76.156 207.836,75.191 207.215,73.938 L198.925,57.196 C198.082,55.492 198.241,54.040 199.302,53.995 Z"
      />
      <path
        fill-rule="evenodd"
        stroke="rgb(255, 255, 255)"
        stroke-width="1px"
        stroke-linecap="butt"
        stroke-linejoin="miter"
        fill="none"
        d="M155.840,59.353 L186.549,56.221 C187.562,56.117 188.998,57.297 189.739,58.831 L197.355,74.592 C197.951,75.825 197.684,76.842 196.771,76.882 L168.804,78.119 C168.026,78.153 166.771,77.286 165.987,76.167 L156.058,61.998 C155.101,60.633 154.995,59.439 155.840,59.353 Z"
      />
      <path
        fill-rule="evenodd"
        stroke="rgb(255, 255, 255)"
        stroke-width="1px"
        stroke-linecap="butt"
        stroke-linejoin="miter"
        fill="none"
        d="M118.210,65.175 L142.324,60.407 C143.130,60.248 144.713,61.333 145.829,62.796 L156.824,77.207 C157.650,78.289 157.726,79.216 157.016,79.298 L135.399,81.809 C134.802,81.878 133.526,81.175 132.528,80.222 L119.422,67.699 C118.112,66.446 117.554,65.304 118.210,65.175 Z"
      />
      <path
        fill-rule="evenodd"
        stroke="rgb(255, 255, 255)"
        stroke-width="1px"
        stroke-linecap="butt"
        stroke-linejoin="miter"
        fill="none"
        d="M81.513,71.438 L107.352,67.026 C108.230,66.876 109.873,67.895 110.977,69.255 L121.265,81.939 C121.997,82.842 121.983,83.609 121.256,83.677 L99.352,85.732 C98.752,85.788 97.485,85.217 96.496,84.437 L82.886,73.714 C81.459,72.590 80.823,71.556 81.513,71.438 Z"
      />
      <path
        fill-rule="evenodd"
        stroke="rgb(255, 255, 255)"
        stroke-width="1px"
        stroke-linecap="butt"
        stroke-linejoin="miter"
        fill="none"
        d="M52.352,79.166 L68.821,74.431 C69.384,74.269 70.837,74.842 72.069,75.716 L86.759,86.148 C88.092,87.095 88.631,87.959 87.960,88.072 L68.469,91.357 C67.955,91.444 66.648,90.836 65.552,90.005 L53.412,80.795 C52.389,80.019 51.915,79.292 52.352,79.166 Z"
      />
      <path
        fill-rule="evenodd"
        stroke="rgb(255, 255, 255)"
        stroke-width="1px"
        stroke-linecap="butt"
        stroke-linejoin="miter"
        fill="none"
        d="M28.885,89.591 L40.367,82.709 C40.903,82.388 42.429,82.834 43.747,83.707 L57.911,93.078 C59.069,93.844 59.361,94.559 58.595,94.678 L41.726,97.308 C41.387,97.361 40.469,97.015 39.666,96.534 L30.066,90.782 C29.194,90.259 28.661,89.726 28.885,89.591 Z"
      />
      <path
        fill-rule="evenodd"
        stroke="rgb(255, 255, 255)"
        stroke-width="1px"
        stroke-linecap="butt"
        stroke-linejoin="miter"
        fill="none"
        d="M351.658,54.031 L316.371,52.504 C315.308,52.458 314.169,53.859 313.835,55.590 L310.549,72.608 C310.303,73.882 310.824,74.925 311.706,74.963 L341.014,76.232 C341.897,76.270 343.107,75.302 343.729,74.044 L352.036,57.243 C352.881,55.534 352.721,54.077 351.658,54.031 Z"
      />
      <path
        fill-rule="evenodd"
        stroke="rgb(255, 255, 255)"
        stroke-width="1px"
        stroke-linecap="butt"
        stroke-linejoin="miter"
        fill="none"
        d="M395.210,59.408 L364.438,56.265 C363.423,56.161 361.984,57.345 361.241,58.884 L353.609,74.700 C353.012,75.937 353.279,76.958 354.194,76.999 L382.219,78.239 C382.999,78.274 384.257,77.404 385.042,76.281 L394.992,62.063 C395.951,60.692 396.057,59.495 395.210,59.408 Z"
      />
      <path
        fill-rule="evenodd"
        stroke="rgb(255, 255, 255)"
        stroke-width="1px"
        stroke-linecap="butt"
        stroke-linejoin="miter"
        fill="none"
        d="M432.918,65.250 L408.754,60.466 C407.946,60.307 406.359,61.395 405.241,62.863 L394.223,77.325 C393.396,78.410 393.319,79.340 394.031,79.423 L415.693,81.942 C416.291,82.012 417.570,81.306 418.570,80.350 L431.703,67.783 C433.016,66.526 433.575,65.380 432.918,65.250 Z"
      />
      <path
        fill-rule="evenodd"
        stroke="rgb(255, 255, 255)"
        stroke-width="1px"
        stroke-linecap="butt"
        stroke-linejoin="miter"
        fill="none"
        d="M469.691,71.536 L443.798,67.108 C442.918,66.958 441.272,67.980 440.166,69.345 L429.856,82.073 C429.123,82.979 429.137,83.749 429.865,83.817 L451.815,85.879 C452.416,85.935 453.685,85.362 454.677,84.580 L468.315,73.820 C469.745,72.691 470.382,71.654 469.691,71.536 Z"
      />
      <path
        fill-rule="evenodd"
        stroke="rgb(255, 255, 255)"
        stroke-width="1px"
        stroke-linecap="butt"
        stroke-linejoin="miter"
        fill="none"
        d="M498.912,79.290 L482.409,74.539 C481.844,74.376 480.388,74.951 479.154,75.828 L464.433,86.297 C463.098,87.247 462.558,88.114 463.230,88.227 L482.762,91.524 C483.277,91.611 484.586,91.001 485.684,90.167 L497.850,80.925 C498.875,80.146 499.349,79.416 498.912,79.290 Z"
      />
      <path
        fill-rule="evenodd"
        stroke="rgb(255, 255, 255)"
        stroke-width="1px"
        stroke-linecap="butt"
        stroke-linejoin="miter"
        fill="none"
        d="M522.427,89.752 L510.921,82.846 C510.385,82.524 508.855,82.972 507.535,83.847 L493.341,93.250 C492.181,94.019 491.888,94.736 492.656,94.856 L509.560,97.496 C509.900,97.549 510.819,97.202 511.624,96.719 L521.244,90.947 C522.118,90.422 522.652,89.887 522.427,89.752 Z"
      />
      <path
        fill-rule="evenodd"
        stroke="rgb(255, 255, 255)"
        stroke-width="1px"
        stroke-linecap="butt"
        stroke-linejoin="miter"
        fill="none"
        d="M19.500,101.500 C19.500,101.500 19.586,98.508 19.500,95.500 C23.103,91.909 34.403,100.510 35.500,101.500 C36.015,102.199 35.500,109.500 35.500,109.500 "
      />
      <path
        fill-rule="evenodd"
        stroke="rgb(255, 255, 255)"
        stroke-width="1px"
        stroke-linecap="butt"
        stroke-linejoin="miter"
        fill="none"
        d="M527.038,101.878 C527.038,101.878 526.807,99.153 526.801,96.312 C521.943,93.961 510.664,104.020 510.664,104.020 C510.311,104.558 511.264,109.494 511.264,109.494 "
      />
      <path
        fill-rule="evenodd"
        stroke="rgb(255, 255, 255)"
        stroke-width="1px"
        stroke-linecap="butt"
        stroke-linejoin="miter"
        fill="none"
        d="M273.000,139.500 C318.563,139.500 355.500,143.977 355.500,149.500 C355.500,155.023 318.563,159.500 273.000,159.500 C227.437,159.500 190.500,155.023 190.500,149.500 C190.500,143.977 227.437,139.500 273.000,139.500 Z"
      />
      <path
        fill-rule="evenodd"
        stroke="rgb(255, 255, 255)"
        stroke-width="1px"
        stroke-linecap="butt"
        stroke-linejoin="miter"
        fill="none"
        d="M273.500,141.500 C313.264,141.500 345.500,145.082 345.500,149.500 C345.500,153.918 313.264,157.500 273.500,157.500 C233.736,157.500 201.500,153.918 201.500,149.500 C201.500,145.082 233.736,141.500 273.500,141.500 Z"
      />
      <path
        fill-rule="evenodd"
        stroke="rgb(255, 255, 255)"
        stroke-width="1px"
        stroke-linecap="butt"
        stroke-linejoin="miter"
        fill="none"
        d="M191.500,149.500 L164.500,127.500 C164.500,127.500 193.115,104.500 271.500,104.500 C363.231,106.301 382.500,127.500 382.500,127.500 L355.500,149.500 "
      />
      <path
        fill-rule="evenodd"
        stroke="rgb(255, 255, 255)"
        stroke-width="1px"
        stroke-linecap="butt"
        stroke-linejoin="miter"
        fill="none"
        d="M175.500,137.500 C175.500,137.500 26.168,126.057 5.500,88.500 C2.221,73.343 110.819,39.256 275.500,39.500 C349.406,38.565 530.003,59.152 540.500,88.500 C518.145,126.826 370.500,137.500 370.500,137.500 "
      />
      <path
        fill-rule="evenodd"
        stroke="rgb(255, 255, 255)"
        stroke-width="1px"
        stroke-linecap="butt"
        stroke-linejoin="miter"
        fill="none"
        d="M371.158,132.552 C371.044,133.210 370.930,133.868 370.816,134.526 C370.627,135.616 369.770,136.302 368.903,136.064 C362.877,134.405 356.832,132.905 350.770,131.565 C349.898,131.372 349.309,130.327 349.456,129.226 C349.545,128.562 349.633,127.898 349.722,127.233 C349.869,126.133 350.705,125.395 351.588,125.591 C357.713,126.945 363.823,128.461 369.912,130.137 C370.790,130.379 371.347,131.462 371.158,132.552 ZM346.279,128.553 C346.137,129.655 345.314,130.401 344.439,130.224 C338.367,128.993 332.280,127.922 326.181,127.010 C325.303,126.879 324.671,125.877 324.770,124.767 C324.830,124.098 324.890,123.428 324.950,122.759 C325.049,121.650 325.850,120.855 326.738,120.988 C332.901,121.909 339.053,122.992 345.190,124.235 C346.075,124.414 346.676,125.456 346.535,126.558 C346.449,127.223 346.364,127.888 346.279,128.553 ZM321.575,124.319 C321.481,125.429 320.693,126.231 319.814,126.116 C313.708,125.314 307.593,124.671 301.472,124.188 C300.590,124.118 299.917,123.162 299.968,122.047 C299.999,121.375 300.030,120.702 300.061,120.029 C300.111,118.915 300.876,118.065 301.767,118.135 C307.953,118.624 314.133,119.274 320.304,120.084 C321.193,120.201 321.838,121.199 321.744,122.309 C321.688,122.979 321.632,123.649 321.575,124.319 ZM296.762,121.823 C296.716,122.938 295.964,123.794 295.082,123.741 C288.958,123.367 282.828,123.153 276.698,123.098 C275.816,123.090 275.102,122.182 275.105,121.066 C275.107,120.392 275.109,119.718 275.110,119.044 C275.113,117.928 275.839,117.026 276.732,117.034 C282.927,117.090 289.121,117.306 295.311,117.684 C296.203,117.738 296.889,118.689 296.843,119.804 C296.816,120.477 296.789,121.150 296.762,121.823 ZM270.302,123.098 C264.172,123.153 258.042,123.367 251.918,123.741 C251.036,123.794 250.284,122.938 250.238,121.823 C250.211,121.150 250.184,120.477 250.157,119.804 C250.111,118.689 250.797,117.738 251.689,117.684 C257.879,117.306 264.073,117.090 270.268,117.034 C271.161,117.026 271.887,117.928 271.890,119.044 C271.891,119.718 271.893,120.392 271.895,121.066 C271.898,122.182 271.184,123.090 270.302,123.098 ZM227.186,126.116 C226.307,126.231 225.519,125.429 225.425,124.319 C225.368,123.649 225.312,122.979 225.256,122.309 C225.162,121.199 225.807,120.201 226.696,120.084 C232.867,119.274 239.047,118.624 245.233,118.135 C246.124,118.065 246.889,118.915 246.939,120.029 C246.970,120.702 247.001,121.375 247.032,122.047 C247.083,123.162 246.410,124.118 245.528,124.188 C239.407,124.671 233.292,125.314 227.186,126.116 ZM202.561,130.224 C201.686,130.401 200.863,129.655 200.721,128.553 C200.636,127.888 200.551,127.223 200.465,126.558 C200.324,125.456 200.925,124.414 201.810,124.235 C207.947,122.992 214.099,121.909 220.262,120.988 C221.150,120.855 221.951,121.650 222.050,122.759 C222.110,123.428 222.170,124.098 222.230,124.767 C222.329,125.877 221.697,126.879 220.819,127.010 C214.720,127.922 208.633,128.993 202.561,130.224 ZM178.097,136.064 C177.230,136.302 176.373,135.616 176.184,134.526 C176.070,133.868 175.956,133.210 175.842,132.552 C175.653,131.462 176.210,130.379 177.088,130.137 C183.177,128.461 189.287,126.945 195.412,125.591 C196.295,125.395 197.131,126.133 197.278,127.233 C197.367,127.898 197.455,128.562 197.544,129.226 C197.691,130.327 197.102,131.372 196.230,131.565 C190.168,132.905 184.123,134.405 178.097,136.064 Z"
      />
    </svg>